<?xml version="1.0" encoding="UTF-8" standalone="no"?>
<!DOCTYPE svg PUBLIC "-//W3C//DTD SVG 1.1//EN"
 "http://www.w3.org/Graphics/SVG/1.1/DTD/svg11.dtd">
<!-- Generated by graphviz version 2.43.0 (0)
 -->
<!-- Title: G Pages: 1 -->
<svg width="863pt" height="1196pt"
 viewBox="0.00 0.00 862.64 1196.27" xmlns="http://www.w3.org/2000/svg" xmlns:xlink="http://www.w3.org/1999/xlink">
<g id="graph0" class="graph" transform="scale(1 1) rotate(0) translate(4 1192.27)">
<title>G</title><style>.edge>path:hover{stroke-width:8}</style>
<polygon fill="white" stroke="transparent" points="-4,4 -4,-1192.27 858.64,-1192.27 858.64,4 -4,4"/>
<!-- cumind___main__ -->
<g id="node1" class="node">
<title>cumind___main__</title><style>.edge>path:hover{stroke-width:8}</style>
<ellipse fill="#ac4949" stroke="black" cx="216.59" cy="-21.21" rx="43.68" ry="21.43"/>
<text text-anchor="middle" x="216.59" y="-24.21" font-family="Helvetica,sans-Serif" font-size="10.00" fill="#ffffff">cumind.</text>
<text text-anchor="middle" x="216.59" y="-13.21" font-family="Helvetica,sans-Serif" font-size="10.00" fill="#ffffff">__main__</text>
</g>
<!-- cumind_agent -->
<g id="node2" class="node">
<title>cumind_agent</title><style>.edge>path:hover{stroke-width:8}</style>
<ellipse fill="#e72222" stroke="black" cx="68.59" cy="-629.35" rx="48.72" ry="18"/>
<text text-anchor="middle" x="68.59" y="-626.85" font-family="Helvetica,sans-Serif" font-size="10.00" fill="#ffffff">cumind.agent</text>
</g>
<!-- cumind_cli -->
<g id="node6" class="node">
<title>cumind_cli</title><style>.edge>path:hover{stroke-width:8}</style>
<ellipse fill="#913030" stroke="black" cx="216.59" cy="-96.43" rx="39.38" ry="18"/>
<text text-anchor="middle" x="216.59" y="-93.93" font-family="Helvetica,sans-Serif" font-size="10.00" fill="#ffffff">cumind.cli</text>
</g>
<!-- cumind_agent&#45;&gt;cumind_cli -->
<g id="edge1" class="edge">
<title>cumind_agent&#45;&gt;cumind_cli</title><style>.edge>path:hover{stroke-width:8}</style>
<path fill="none" stroke="black" d="M68.47,-611.06C68.37,-592.57 68.29,-562.39 68.59,-536.37"/>
</g>
<!-- cumind_data_self_play -->
<g id="node15" class="node">
<title>cumind_data_self_play</title><style>.edge>path:hover{stroke-width:8}</style>
<ellipse fill="#913030" stroke="black" cx="257.59" cy="-441.38" rx="43.27" ry="28.98"/>
<text text-anchor="middle" x="257.59" y="-449.88" font-family="Helvetica,sans-Serif" font-size="10.00" fill="#ffffff">cumind.</text>
<text text-anchor="middle" x="257.59" y="-438.88" font-family="Helvetica,sans-Serif" font-size="10.00" fill="#ffffff">data.</text>
<text text-anchor="middle" x="257.59" y="-427.88" font-family="Helvetica,sans-Serif" font-size="10.00" fill="#ffffff">self_play</text>
</g>
<!-- cumind_agent&#45;&gt;cumind_data_self_play -->
<g id="edge2" class="edge">
<title>cumind_agent&#45;&gt;cumind_data_self_play</title><style>.edge>path:hover{stroke-width:8}</style>
<path fill="none" stroke="black" d="M98.3,-614.9C126.57,-600.21 167.17,-573.69 183.59,-536.37"/>
<path fill="none" stroke="black" d="M183.59,-534.37C193.68,-511.43 211.01,-489.42 226.37,-472.68"/>
<polygon fill="#e72222" stroke="black" points="228.94,-475.06 233.25,-465.38 223.85,-470.25 228.94,-475.06"/>
</g>
<!-- cumind_agent_agent -->
<g id="node3" class="node">
<title>cumind_agent_agent</title><style>.edge>path:hover{stroke-width:8}</style>
<ellipse fill="#931a1a" stroke="black" cx="512.59" cy="-629.35" rx="39.7" ry="28.98"/>
<text text-anchor="middle" x="512.59" y="-637.85" font-family="Helvetica,sans-Serif" font-size="10.00" fill="#ffffff">cumind.</text>
<text text-anchor="middle" x="512.59" y="-626.85" font-family="Helvetica,sans-Serif" font-size="10.00" fill="#ffffff">agent.</text>
<text text-anchor="middle" x="512.59" y="-615.85" font-family="Helvetica,sans-Serif" font-size="10.00" fill="#ffffff">agent</text>
</g>
<!-- cumind_agent_runner -->
<g id="node4" class="node">
<title>cumind_agent_runner</title><style>.edge>path:hover{stroke-width:8}</style>
<ellipse fill="#8a2e2e" stroke="black" cx="216.59" cy="-216.42" rx="39.7" ry="28.98"/>
<text text-anchor="middle" x="216.59" y="-224.92" font-family="Helvetica,sans-Serif" font-size="10.00" fill="#ffffff">cumind.</text>
<text text-anchor="middle" x="216.59" y="-213.92" font-family="Helvetica,sans-Serif" font-size="10.00" fill="#ffffff">agent.</text>
<text text-anchor="middle" x="216.59" y="-202.92" font-family="Helvetica,sans-Serif" font-size="10.00" fill="#ffffff">runner</text>
</g>
<!-- cumind_agent_agent&#45;&gt;cumind_agent_runner -->
<g id="edge3" class="edge">
<title>cumind_agent_agent&#45;&gt;cumind_agent_runner</title><style>.edge>path:hover{stroke-width:8}</style>
<path fill="none" stroke="black" d="M512.59,-534.37C507.09,-479.39 521.19,-465.45 536.59,-412.39 541.38,-395.91 550.59,-393.56 550.59,-376.39"/>
<path fill="none" stroke="black" d="M550.59,-375.39C545.71,-238.28 393.75,-305.88 270.59,-245.41 266.26,-243.28 261.75,-241.02 257.27,-238.74"/>
<polygon fill="#931a1a" stroke="black" points="258.67,-235.53 248.17,-234.08 255.47,-241.76 258.67,-235.53"/>
</g>
<!-- cumind_agent_trainer -->
<g id="node5" class="node">
<title>cumind_agent_trainer</title><style>.edge>path:hover{stroke-width:8}</style>
<ellipse fill="#732626" stroke="black" cx="254.59" cy="-310.4" rx="39.7" ry="28.98"/>
<text text-anchor="middle" x="254.59" y="-318.9" font-family="Helvetica,sans-Serif" font-size="10.00" fill="#ffffff">cumind.</text>
<text text-anchor="middle" x="254.59" y="-307.9" font-family="Helvetica,sans-Serif" font-size="10.00" fill="#ffffff">agent.</text>
<text text-anchor="middle" x="254.59" y="-296.9" font-family="Helvetica,sans-Serif" font-size="10.00" fill="#ffffff">trainer</text>
</g>
<!-- cumind_agent_agent&#45;&gt;cumind_agent_trainer -->
<g id="edge4" class="edge">
<title>cumind_agent_agent&#45;&gt;cumind_agent_trainer</title><style>.edge>path:hover{stroke-width:8}</style>
<path fill="none" stroke="black" d="M514.04,-600.1C514.62,-581.86 514.72,-557.66 512.59,-536.37"/>
<path fill="none" stroke="black" d="M512.59,-534.37C508.19,-490.35 494.63,-481.82 474.59,-442.38"/>
</g>
<!-- cumind_agent_agent&#45;&gt;cumind_data_self_play -->
<g id="edge5" class="edge">
<title>cumind_agent_agent&#45;&gt;cumind_data_self_play</title><style>.edge>path:hover{stroke-width:8}</style>
<path fill="none" stroke="black" d="M484.82,-608.09C438.6,-574.39 345.89,-506.78 294.33,-469.17"/>
<polygon fill="#931a1a" stroke="black" points="296.25,-466.25 286.11,-463.18 292.13,-471.9 296.25,-466.25"/>
</g>
<!-- cumind_agent_runner&#45;&gt;cumind_cli -->
<g id="edge6" class="edge">
<title>cumind_agent_runner&#45;&gt;cumind_cli</title><style>.edge>path:hover{stroke-width:8}</style>
<path fill="none" stroke="black" d="M216.59,-187.38C216.59,-176.2 216.59,-163.2 216.59,-151.43"/>
</g>
<!-- cumind_agent_trainer&#45;&gt;cumind_agent_runner -->
<g id="edge7" class="edge">
<title>cumind_agent_trainer&#45;&gt;cumind_agent_runner</title><style>.edge>path:hover{stroke-width:8}</style>
<path fill="none" stroke="black" d="M243.4,-282.3C239.69,-273.32 235.49,-263.17 231.55,-253.62"/>
<polygon fill="#732626" stroke="black" points="234.76,-252.23 227.71,-244.32 228.29,-254.9 234.76,-252.23"/>
</g>
<!-- cumind_cli&#45;&gt;cumind___main__ -->
<g id="edge8" class="edge">
<title>cumind_cli&#45;&gt;cumind___main__</title><style>.edge>path:hover{stroke-width:8}</style>
<path fill="none" stroke="black" d="M216.59,-78.08C216.59,-70.5 216.59,-61.39 216.59,-52.74"/>
<polygon fill="#913030" stroke="black" points="220.09,-52.56 216.59,-42.56 213.09,-52.56 220.09,-52.56"/>
</g>
<!-- cumind_core -->
<g id="node7" class="node">
<title>cumind_core</title><style>.edge>path:hover{stroke-width:8}</style>
<ellipse fill="#f31616" stroke="black" cx="509.59" cy="-817.31" rx="45.15" ry="18"/>
<text text-anchor="middle" x="509.59" y="-814.81" font-family="Helvetica,sans-Serif" font-size="10.00" fill="#ffffff">cumind.core</text>
</g>
<!-- cumind_core&#45;&gt;cumind_agent_agent -->
<g id="edge9" class="edge">
<title>cumind_core&#45;&gt;cumind_agent_agent</title><style>.edge>path:hover{stroke-width:8}</style>
<path fill="none" stroke="black" d="M534.75,-802.21C561.75,-785.11 598.74,-754.77 582.59,-724.33"/>
<path fill="none" stroke="black" d="M582.59,-722.33C571.12,-700.7 554.67,-678.79 540.61,-661.78"/>
<polygon fill="#f31616" stroke="black" points="543.05,-659.24 533.93,-653.85 537.69,-663.75 543.05,-659.24"/>
</g>
<!-- cumind_core&#45;&gt;cumind_agent_trainer -->
<g id="edge10" class="edge">
<title>cumind_core&#45;&gt;cumind_agent_trainer</title><style>.edge>path:hover{stroke-width:8}</style>
<path fill="none" stroke="black" d="M489.11,-801.09C469.44,-784.75 441.95,-756.71 436.59,-724.33"/>
<path fill="none" stroke="black" d="M436.59,-722.33C416.1,-598.45 531.47,-554.32 474.59,-442.38"/>
</g>
<!-- cumind_core_blocks -->
<g id="node8" class="node">
<title>cumind_core_blocks</title><style>.edge>path:hover{stroke-width:8}</style>
<ellipse fill="#b03a3a" stroke="black" cx="254.59" cy="-911.3" rx="39.7" ry="28.98"/>
<text text-anchor="middle" x="254.59" y="-919.8" font-family="Helvetica,sans-Serif" font-size="10.00" fill="#ffffff">cumind.</text>
<text text-anchor="middle" x="254.59" y="-908.8" font-family="Helvetica,sans-Serif" font-size="10.00" fill="#ffffff">core.</text>
<text text-anchor="middle" x="254.59" y="-897.8" font-family="Helvetica,sans-Serif" font-size="10.00" fill="#ffffff">blocks</text>
</g>
<!-- cumind_core_encoder -->
<g id="node9" class="node">
<title>cumind_core_encoder</title><style>.edge>path:hover{stroke-width:8}</style>
<ellipse fill="#a13535" stroke="black" cx="254.59" cy="-817.31" rx="39.7" ry="28.98"/>
<text text-anchor="middle" x="254.59" y="-825.81" font-family="Helvetica,sans-Serif" font-size="10.00" fill="#ffffff">cumind.</text>
<text text-anchor="middle" x="254.59" y="-814.81" font-family="Helvetica,sans-Serif" font-size="10.00" fill="#ffffff">core.</text>
<text text-anchor="middle" x="254.59" y="-803.81" font-family="Helvetica,sans-Serif" font-size="10.00" fill="#ffffff">encoder</text>
</g>
<!-- cumind_core_blocks&#45;&gt;cumind_core_encoder -->
<g id="edge11" class="edge">
<title>cumind_core_blocks&#45;&gt;cumind_core_encoder</title><style>.edge>path:hover{stroke-width:8}</style>
<path fill="none" stroke="black" d="M254.59,-882.2C254.59,-874.16 254.59,-865.26 254.59,-856.72"/>
<polygon fill="#b03a3a" stroke="black" points="258.09,-856.56 254.59,-846.56 251.09,-856.56 258.09,-856.56"/>
</g>
<!-- cumind_core_resnet -->
<g id="node12" class="node">
<title>cumind_core_resnet</title><style>.edge>path:hover{stroke-width:8}</style>
<ellipse fill="#a44646" stroke="black" cx="254.59" cy="-723.33" rx="39.7" ry="28.98"/>
<text text-anchor="middle" x="254.59" y="-731.83" font-family="Helvetica,sans-Serif" font-size="10.00" fill="#ffffff">cumind.</text>
<text text-anchor="middle" x="254.59" y="-720.83" font-family="Helvetica,sans-Serif" font-size="10.00" fill="#ffffff">core.</text>
<text text-anchor="middle" x="254.59" y="-709.83" font-family="Helvetica,sans-Serif" font-size="10.00" fill="#ffffff">resnet</text>
</g>
<!-- cumind_core_encoder&#45;&gt;cumind_core_resnet -->
<g id="edge12" class="edge">
<title>cumind_core_encoder&#45;&gt;cumind_core_resnet</title><style>.edge>path:hover{stroke-width:8}</style>
<path fill="none" stroke="black" d="M254.59,-788.22C254.59,-780.18 254.59,-771.28 254.59,-762.73"/>
<polygon fill="#a13535" stroke="black" points="258.09,-762.57 254.59,-752.57 251.09,-762.57 258.09,-762.57"/>
</g>
<!-- cumind_core_mcts -->
<g id="node10" class="node">
<title>cumind_core_mcts</title><style>.edge>path:hover{stroke-width:8}</style>
<ellipse fill="#913030" stroke="black" cx="650.59" cy="-817.31" rx="39.7" ry="28.98"/>
<text text-anchor="middle" x="650.59" y="-825.81" font-family="Helvetica,sans-Serif" font-size="10.00" fill="#ffffff">cumind.</text>
<text text-anchor="middle" x="650.59" y="-814.81" font-family="Helvetica,sans-Serif" font-size="10.00" fill="#ffffff">core.</text>
<text text-anchor="middle" x="650.59" y="-803.81" font-family="Helvetica,sans-Serif" font-size="10.00" fill="#ffffff">mcts</text>
</g>
<!-- cumind_core_mcts&#45;&gt;cumind_agent_agent -->
<g id="edge13" class="edge">
<title>cumind_core_mcts&#45;&gt;cumind_agent_agent</title><style>.edge>path:hover{stroke-width:8}</style>
<path fill="none" stroke="black" d="M629.7,-792.28C615.01,-774.46 595.71,-749.07 582.59,-724.33"/>
</g>
<!-- cumind_core_network -->
<g id="node11" class="node">
<title>cumind_core_network</title><style>.edge>path:hover{stroke-width:8}</style>
<ellipse fill="#c82323" stroke="black" cx="476.59" cy="-911.3" rx="39.7" ry="28.98"/>
<text text-anchor="middle" x="476.59" y="-919.8" font-family="Helvetica,sans-Serif" font-size="10.00" fill="#ffffff">cumind.</text>
<text text-anchor="middle" x="476.59" y="-908.8" font-family="Helvetica,sans-Serif" font-size="10.00" fill="#ffffff">core.</text>
<text text-anchor="middle" x="476.59" y="-897.8" font-family="Helvetica,sans-Serif" font-size="10.00" fill="#ffffff">network</text>
</g>
<!-- cumind_core_network&#45;&gt;cumind_agent_agent -->
<g id="edge14" class="edge">
<title>cumind_core_network&#45;&gt;cumind_agent_agent</title><style>.edge>path:hover{stroke-width:8}</style>
<path fill="none" stroke="black" d="M507.54,-893.08C532.65,-877.24 566.45,-851.24 582.59,-818.31"/>
</g>
<!-- cumind_core_network&#45;&gt;cumind_agent_trainer -->
<g id="edge15" class="edge">
<title>cumind_core_network&#45;&gt;cumind_agent_trainer</title><style>.edge>path:hover{stroke-width:8}</style>
<path fill="none" stroke="black" d="M466.61,-883.17C462.74,-871.89 458.54,-858.58 455.59,-846.31 442.77,-792.96 443.25,-778.79 436.59,-724.33"/>
</g>
<!-- cumind_core_network&#45;&gt;cumind_core_mcts -->
<g id="edge16" class="edge">
<title>cumind_core_network&#45;&gt;cumind_core_mcts</title><style>.edge>path:hover{stroke-width:8}</style>
<path fill="none" stroke="black" d="M508.1,-893.64C536.71,-878.51 579.07,-856.12 610.17,-839.68"/>
<polygon fill="#c82323" stroke="black" points="611.82,-842.77 619.02,-835 608.55,-836.58 611.82,-842.77"/>
</g>
<!-- cumind_data -->
<g id="node13" class="node">
<title>cumind_data</title><style>.edge>path:hover{stroke-width:8}</style>
<ellipse fill="#ce3b3b" stroke="black" cx="401.59" cy="-441.38" rx="45.15" ry="18"/>
<text text-anchor="middle" x="401.59" y="-438.88" font-family="Helvetica,sans-Serif" font-size="10.00" fill="#ffffff">cumind.data</text>
</g>
<!-- cumind_data&#45;&gt;cumind_agent_trainer -->
<g id="edge17" class="edge">
<title>cumind_data&#45;&gt;cumind_agent_trainer</title><style>.edge>path:hover{stroke-width:8}</style>
<path fill="none" stroke="black" d="M404.49,-423.34C406.05,-410.16 406.73,-391.66 401.59,-376.39"/>
</g>
<!-- cumind_data_memory -->
<g id="node14" class="node">
<title>cumind_data_memory</title><style>.edge>path:hover{stroke-width:8}</style>
<ellipse fill="#b42d2d" stroke="black" cx="252.59" cy="-535.37" rx="41.02" ry="28.98"/>
<text text-anchor="middle" x="252.59" y="-543.87" font-family="Helvetica,sans-Serif" font-size="10.00" fill="#ffffff">cumind.</text>
<text text-anchor="middle" x="252.59" y="-532.87" font-family="Helvetica,sans-Serif" font-size="10.00" fill="#ffffff">data.</text>
<text text-anchor="middle" x="252.59" y="-521.87" font-family="Helvetica,sans-Serif" font-size="10.00" fill="#ffffff">memory</text>
</g>
<!-- cumind_data_memory&#45;&gt;cumind_agent_trainer -->
<g id="edge18" class="edge">
<title>cumind_data_memory&#45;&gt;cumind_agent_trainer</title><style>.edge>path:hover{stroke-width:8}</style>
<path fill="none" stroke="black" d="M275.02,-510.7C285.85,-498.9 298.8,-484.22 309.59,-470.37 318.83,-458.52 319.95,-454.69 328.59,-442.38"/>
<path fill="none" stroke="black" d="M328.59,-440.38C337.23,-428.08 336.92,-422.98 347.59,-412.39 368.07,-392.08 410.79,-403.73 401.59,-376.39"/>
</g>
<!-- cumind_data_memory&#45;&gt;cumind_data_self_play -->
<g id="edge19" class="edge">
<title>cumind_data_memory&#45;&gt;cumind_data_self_play</title><style>.edge>path:hover{stroke-width:8}</style>
<path fill="none" stroke="black" d="M254.12,-506.27C254.56,-498.23 255.04,-489.33 255.5,-480.79"/>
<polygon fill="#b42d2d" stroke="black" points="259.01,-480.8 256.06,-470.63 252.02,-480.42 259.01,-480.8"/>
</g>
<!-- cumind_data_self_play&#45;&gt;cumind_agent_trainer -->
<g id="edge20" class="edge">
<title>cumind_data_self_play&#45;&gt;cumind_agent_trainer</title><style>.edge>path:hover{stroke-width:8}</style>
<path fill="none" stroke="black" d="M291.48,-423.3C299.04,-419.61 307.06,-415.8 314.59,-412.39 352.73,-395.16 414.94,-416.05 401.59,-376.39"/>
<path fill="none" stroke="black" d="M401.59,-375.39C388.49,-336.45 341.62,-321.14 304.28,-315.16"/>
<polygon fill="#913030" stroke="black" points="304.43,-311.64 294.04,-313.71 303.45,-318.57 304.43,-311.64"/>
</g>
<!-- cumind_utils -->
<g id="node16" class="node">
<title>cumind_utils</title><style>.edge>path:hover{stroke-width:8}</style>
<ellipse fill="#f91010" stroke="black" cx="324.59" cy="-1082.28" rx="45.15" ry="18"/>
<text text-anchor="middle" x="324.59" y="-1079.78" font-family="Helvetica,sans-Serif" font-size="10.00" fill="#ffffff">cumind.utils</text>
</g>
<!-- cumind_utils&#45;&gt;cumind_agent_agent -->
<g id="edge21" class="edge">
<title>cumind_utils&#45;&gt;cumind_agent_agent</title><style>.edge>path:hover{stroke-width:8}</style>
<path fill="none" stroke="black" d="M324.59,-910.3C338.23,-864.86 381.77,-894.6 427.59,-882.31 487.98,-866.11 512.58,-882.46 563.59,-846.31 575.86,-837.61 575.97,-831.81 582.59,-818.31"/>
<path fill="none" stroke="black" d="M582.59,-816.31C600.59,-779.61 601.75,-760.45 582.59,-724.33"/>
</g>
<!-- cumind_utils&#45;&gt;cumind_agent_runner -->
<g id="edge22" class="edge">
<title>cumind_utils&#45;&gt;cumind_agent_runner</title><style>.edge>path:hover{stroke-width:8}</style>
<path fill="none" stroke="black" d="M143.59,-816.31C117.89,-708.49 184.58,-369.61 208.46,-255.42"/>
<polygon fill="#f91010" stroke="black" points="211.94,-255.9 210.57,-245.39 205.09,-254.46 211.94,-255.9"/>
</g>
<!-- cumind_utils&#45;&gt;cumind_agent_trainer -->
<g id="edge23" class="edge">
<title>cumind_utils&#45;&gt;cumind_agent_trainer</title><style>.edge>path:hover{stroke-width:8}</style>
<path fill="none" stroke="black" d="M322.59,-722.33C307.92,-661.86 292.85,-493.32 328.59,-442.38"/>
</g>
<!-- cumind_utils&#45;&gt;cumind_cli -->
<g id="edge24" class="edge">
<title>cumind_utils&#45;&gt;cumind_cli</title><style>.edge>path:hover{stroke-width:8}</style>
<path fill="none" stroke="black" d="M307.42,-1065.62C267.62,-1027.89 170.46,-927 143.59,-818.31"/>
<path fill="none" stroke="black" d="M143.59,-816.31C133.65,-795.63 18.46,-679.9 10.59,-658.34 1.76,-634.13 -0.44,-623.65 10.59,-600.36 21.41,-577.52 38.81,-584.09 54.59,-564.36 63.28,-553.49 68.43,-550.28 68.59,-536.37"/>
<path fill="none" stroke="black" d="M68.59,-534.37C67.83,-504.95 55.4,-499.55 51.59,-470.37 48.26,-444.82 45.7,-437.48 51.59,-412.39 73.73,-318.17 97.86,-299.84 148.59,-217.42"/>
<path fill="none" stroke="black" d="M148.59,-215.42C156.44,-202.59 157.16,-198.25 167.59,-187.43 186.34,-167.96 220.64,-178.14 216.59,-151.43"/>
<path fill="none" stroke="black" d="M216.59,-150.43C215.34,-142.2 214.98,-133.18 215.03,-124.95"/>
<polygon fill="#f91010" stroke="black" points="218.53,-124.8 215.29,-114.71 211.53,-124.62 218.53,-124.8"/>
</g>
<!-- cumind_utils&#45;&gt;cumind_core_blocks -->
<g id="edge25" class="edge">
<title>cumind_utils&#45;&gt;cumind_core_blocks</title><style>.edge>path:hover{stroke-width:8}</style>
<path fill="none" stroke="black" d="M323.06,-1064.21C321.9,-1047.25 321.04,-1020.56 324.59,-997.79"/>
<path fill="none" stroke="black" d="M324.59,-995.79C328.26,-972.29 311.43,-951.73 293.36,-936.89"/>
<polygon fill="#f91010" stroke="black" points="295.1,-933.82 285.04,-930.49 290.83,-939.36 295.1,-933.82"/>
</g>
<!-- cumind_utils&#45;&gt;cumind_core_encoder -->
<g id="edge26" class="edge">
<title>cumind_utils&#45;&gt;cumind_core_encoder</title><style>.edge>path:hover{stroke-width:8}</style>
<path fill="none" stroke="black" d="M324.59,-995.79C330.31,-959.12 313.92,-947.84 324.59,-912.3"/>
<path fill="none" stroke="black" d="M324.59,-910.3C332.33,-884.51 312.73,-860.48 292.31,-843.45"/>
<polygon fill="#f91010" stroke="black" points="294.22,-840.5 284.2,-837.06 289.89,-846 294.22,-840.5"/>
</g>
<!-- cumind_utils&#45;&gt;cumind_core_mcts -->
<g id="edge27" class="edge">
<title>cumind_utils&#45;&gt;cumind_core_mcts</title><style>.edge>path:hover{stroke-width:8}</style>
<path fill="none" stroke="black" d="M349.69,-1067.27C389.72,-1044.17 469.25,-995.16 525.59,-940.29 548.58,-917.9 546.19,-905.27 568.59,-882.31 582.19,-868.37 598.88,-854.82 613.65,-843.8"/>
<polygon fill="#f91010" stroke="black" points="616.08,-846.36 622.08,-837.62 611.95,-840.71 616.08,-846.36"/>
</g>
<!-- cumind_utils&#45;&gt;cumind_core_network -->
<g id="edge28" class="edge">
<title>cumind_utils&#45;&gt;cumind_core_network</title><style>.edge>path:hover{stroke-width:8}</style>
<path fill="none" stroke="black" d="M324.59,-995.79C331.79,-949.62 386.13,-928.74 427.8,-919.46"/>
<polygon fill="#f91010" stroke="black" points="428.73,-922.84 437.82,-917.4 427.32,-915.99 428.73,-922.84"/>
</g>
<!-- cumind_utils&#45;&gt;cumind_data_memory -->
<g id="edge29" class="edge">
<title>cumind_utils&#45;&gt;cumind_data_memory</title><style>.edge>path:hover{stroke-width:8}</style>
<path fill="none" stroke="black" d="M252.59,-628.35C243.84,-612.18 242.96,-591.96 244.64,-574.59"/>
<polygon fill="#f91010" stroke="black" points="248.17,-574.57 245.97,-564.21 241.23,-573.68 248.17,-574.57"/>
</g>
<!-- cumind_utils&#45;&gt;cumind_data_self_play -->
<g id="edge30" class="edge">
<title>cumind_utils&#45;&gt;cumind_data_self_play</title><style>.edge>path:hover{stroke-width:8}</style>
<path fill="none" stroke="black" d="M324.59,-910.3C348.35,-831.13 336.09,-805.88 322.59,-724.33"/>
<path fill="none" stroke="black" d="M322.59,-722.33C319.05,-707.72 312.51,-706.45 303.59,-694.34 282.03,-665.05 269.9,-662.33 252.59,-630.35"/>
<path fill="none" stroke="black" d="M252.59,-628.35C228.27,-583.4 163.02,-583.15 183.59,-536.37"/>
</g>
<!-- cumind_utils_checkpoint -->
<g id="node17" class="node">
<title>cumind_utils_checkpoint</title><style>.edge>path:hover{stroke-width:8}</style>
<ellipse fill="#c82323" stroke="black" cx="109.59" cy="-441.38" rx="49.49" ry="28.98"/>
<text text-anchor="middle" x="109.59" y="-449.88" font-family="Helvetica,sans-Serif" font-size="10.00" fill="#ffffff">cumind.</text>
<text text-anchor="middle" x="109.59" y="-438.88" font-family="Helvetica,sans-Serif" font-size="10.00" fill="#ffffff">utils.</text>
<text text-anchor="middle" x="109.59" y="-427.88" font-family="Helvetica,sans-Serif" font-size="10.00" fill="#ffffff">checkpoint</text>
</g>
<!-- cumind_utils_checkpoint&#45;&gt;cumind_agent_runner -->
<g id="edge31" class="edge">
<title>cumind_utils_checkpoint&#45;&gt;cumind_agent_runner</title><style>.edge>path:hover{stroke-width:8}</style>
<path fill="none" stroke="black" d="M148.59,-309.4C152.84,-285.14 168.93,-262.8 184.39,-246.21"/>
<polygon fill="#c82323" stroke="black" points="186.94,-248.62 191.41,-239.01 181.92,-243.73 186.94,-248.62"/>
</g>
<!-- cumind_utils_checkpoint&#45;&gt;cumind_agent_trainer -->
<g id="edge32" class="edge">
<title>cumind_utils_checkpoint&#45;&gt;cumind_agent_trainer</title><style>.edge>path:hover{stroke-width:8}</style>
<path fill="none" stroke="black" d="M148.59,-375.39C163.6,-353.87 188.39,-338.32 210.23,-327.94"/>
<polygon fill="#c82323" stroke="black" points="211.7,-331.12 219.37,-323.81 208.81,-324.74 211.7,-331.12"/>
</g>
<!-- cumind_utils_checkpoint&#45;&gt;cumind_cli -->
<g id="edge33" class="edge">
<title>cumind_utils_checkpoint&#45;&gt;cumind_cli</title><style>.edge>path:hover{stroke-width:8}</style>
<path fill="none" stroke="black" d="M124.82,-413.77C131.75,-402.09 140.26,-388.35 148.59,-376.39"/>
<path fill="none" stroke="black" d="M148.59,-375.39C164.85,-352.06 143.68,-339.41 148.59,-311.4"/>
<path fill="none" stroke="black" d="M148.59,-309.4C155.65,-269.13 127.16,-252.23 148.59,-217.42"/>
</g>
<!-- cumind_utils_config -->
<g id="node18" class="node">
<title>cumind_utils_config</title><style>.edge>path:hover{stroke-width:8}</style>
<polygon fill="blue" stroke="black" points="757.59,-1017.29 701.59,-1017.29 701.59,-976.29 757.59,-976.29 757.59,-1017.29"/>
<text text-anchor="middle" x="729.59" y="-1005.29" font-family="Helvetica,sans-Serif" font-size="10.00" fill="white">cumind.</text>
<text text-anchor="middle" x="729.59" y="-994.29" font-family="Helvetica,sans-Serif" font-size="10.00" fill="white">utils.</text>
<text text-anchor="middle" x="729.59" y="-983.29" font-family="Helvetica,sans-Serif" font-size="10.00" fill="white">config</text>
</g>
<!-- cumind_utils_config&#45;&gt;cumind_agent_agent -->
<g id="edge34" class="edge">
<title>cumind_utils_config&#45;&gt;cumind_agent_agent</title><style>.edge>path:hover{stroke-width:8}</style>
<path fill="none" stroke="black" d="M736.12,-976.11C747.76,-937.2 767.76,-848.92 732.59,-788.32 703.81,-738.74 659.41,-766.52 620.59,-724.33"/>
<path fill="none" stroke="black" d="M620.59,-722.33C609.84,-709.97 608.51,-705.59 596.59,-694.34 581.97,-680.54 564.45,-666.82 549.21,-655.64"/>
<polygon fill="blue" stroke="black" points="551.17,-652.73 541.01,-649.71 547.06,-658.4 551.17,-652.73"/>
</g>
<!-- cumind_utils_config&#45;&gt;cumind_agent_runner -->
<g id="edge35" class="edge">
<title>cumind_utils_config&#45;&gt;cumind_agent_runner</title><style>.edge>path:hover{stroke-width:8}</style>
<path fill="none" stroke="black" d="M550.59,-534.37C536.89,-495.85 544.84,-482.86 550.59,-442.38"/>
<path fill="none" stroke="black" d="M550.59,-440.38C554.59,-412.23 560.91,-402.9 550.59,-376.39"/>
</g>
<!-- cumind_utils_config&#45;&gt;cumind_agent_trainer -->
<g id="edge36" class="edge">
<title>cumind_utils_config&#45;&gt;cumind_agent_trainer</title><style>.edge>path:hover{stroke-width:8}</style>
<path fill="none" stroke="black" d="M620.59,-722.33C562.63,-655.7 593.87,-613.35 550.59,-536.37"/>
<path fill="none" stroke="black" d="M550.59,-534.37C532.82,-484.4 499.11,-489.4 474.59,-442.38"/>
</g>
<!-- cumind_utils_config&#45;&gt;cumind_cli -->
<g id="edge37" class="edge">
<title>cumind_utils_config&#45;&gt;cumind_cli</title><style>.edge>path:hover{stroke-width:8}</style>
<path fill="none" stroke="black" d="M550.59,-440.38C555.25,-407.64 583.94,-409.14 588.59,-376.39"/>
<path fill="none" stroke="black" d="M588.59,-375.39C596.15,-322.21 555.28,-314.02 512.59,-281.41 484.05,-259.61 216.59,-187.35 216.59,-151.43"/>
</g>
<!-- cumind_utils_config&#45;&gt;cumind_core_mcts -->
<g id="edge38" class="edge">
<title>cumind_utils_config&#45;&gt;cumind_core_mcts</title><style>.edge>path:hover{stroke-width:8}</style>
<path fill="none" stroke="black" d="M701.41,-983.39C675.92,-970.11 641.5,-946.27 635.59,-912.3"/>
</g>
<!-- cumind_utils_logger -->
<g id="node19" class="node">
<title>cumind_utils_logger</title><style>.edge>path:hover{stroke-width:8}</style>
<polygon fill="blue" stroke="black" points="701.59,-1188.27 645.59,-1188.27 645.59,-1147.27 701.59,-1147.27 701.59,-1188.27"/>
<text text-anchor="middle" x="673.59" y="-1176.27" font-family="Helvetica,sans-Serif" font-size="10.00" fill="white">cumind.</text>
<text text-anchor="middle" x="673.59" y="-1165.27" font-family="Helvetica,sans-Serif" font-size="10.00" fill="white">utils.</text>
<text text-anchor="middle" x="673.59" y="-1154.27" font-family="Helvetica,sans-Serif" font-size="10.00" fill="white">logger</text>
</g>
<!-- cumind_utils_logger&#45;&gt;cumind_agent_agent -->
<g id="edge40" class="edge">
<title>cumind_utils_logger&#45;&gt;cumind_agent_agent</title><style>.edge>path:hover{stroke-width:8}</style>
<path fill="none" stroke="black" d="M635.59,-995.79C641.22,-955.41 659.12,-950.41 673.59,-912.3"/>
<path fill="none" stroke="black" d="M673.59,-910.3C693.26,-858.48 730.92,-834.05 699.59,-788.32 674.54,-751.76 642.78,-777.92 606.59,-752.32 593.21,-742.86 590.27,-738.81 582.59,-724.33"/>
</g>
<!-- cumind_utils_logger&#45;&gt;cumind_agent_runner -->
<g id="edge41" class="edge">
<title>cumind_utils_logger&#45;&gt;cumind_agent_runner</title><style>.edge>path:hover{stroke-width:8}</style>
<path fill="none" stroke="black" d="M701.77,-1167.12C741.6,-1165.9 813.23,-1157.01 846.59,-1111.27 861.78,-1090.45 850.83,-1078.71 846.59,-1053.29 798.06,-762.58 704.97,-713.17 588.59,-442.38"/>
<path fill="none" stroke="black" d="M588.59,-440.38C577.07,-409.38 562.59,-407.22 550.59,-376.39"/>
</g>
<!-- cumind_utils_logger&#45;&gt;cumind_agent_trainer -->
<g id="edge42" class="edge">
<title>cumind_utils_logger&#45;&gt;cumind_agent_trainer</title><style>.edge>path:hover{stroke-width:8}</style>
<path fill="none" stroke="black" d="M360.59,-816.31C362.29,-794.66 484.63,-461.64 474.59,-442.38"/>
<path fill="none" stroke="black" d="M474.59,-440.38C466.72,-427.57 466.27,-422.98 455.59,-412.39 435.11,-392.08 410.79,-403.73 401.59,-376.39"/>
</g>
<!-- cumind_utils_logger&#45;&gt;cumind_cli -->
<g id="edge43" class="edge">
<title>cumind_utils_logger&#45;&gt;cumind_cli</title><style>.edge>path:hover{stroke-width:8}</style>
<path fill="none" stroke="black" d="M588.59,-440.38C578.69,-413.72 592.52,-404.56 588.59,-376.39"/>
</g>
<!-- cumind_utils_logger&#45;&gt;cumind_core_blocks -->
<g id="edge44" class="edge">
<title>cumind_utils_logger&#45;&gt;cumind_core_blocks</title><style>.edge>path:hover{stroke-width:8}</style>
<path fill="none" stroke="black" d="M178.59,-1081.28C171.91,-1068.77 210.5,-993.31 235.16,-947.56"/>
<polygon fill="blue" stroke="black" points="238.35,-949.02 240.04,-938.56 232.19,-945.68 238.35,-949.02"/>
</g>
<!-- cumind_utils_logger&#45;&gt;cumind_core_encoder -->
<g id="edge45" class="edge">
<title>cumind_utils_logger&#45;&gt;cumind_core_encoder</title><style>.edge>path:hover{stroke-width:8}</style>
<path fill="none" stroke="black" d="M178.59,-995.79C168.58,-944.92 183.34,-929.13 205.59,-882.31 211.03,-870.85 218.76,-859.49 226.48,-849.59"/>
<polygon fill="blue" stroke="black" points="229.34,-851.62 232.91,-841.64 223.9,-847.21 229.34,-851.62"/>
</g>
<!-- cumind_utils_logger&#45;&gt;cumind_core_mcts -->
<g id="edge46" class="edge">
<title>cumind_utils_logger&#45;&gt;cumind_core_mcts</title><style>.edge>path:hover{stroke-width:8}</style>
<path fill="none" stroke="black" d="M656.43,-1147.16C648.78,-1137.14 640.61,-1124.33 636.59,-1111.27 621.76,-1063.06 624.92,-1047.09 635.59,-997.79"/>
<path fill="none" stroke="black" d="M635.59,-995.79C640.72,-959.04 641.95,-948.86 635.59,-912.3"/>
<path fill="none" stroke="black" d="M635.59,-910.3C632.47,-892.34 635,-872.38 638.81,-855.66"/>
<polygon fill="blue" stroke="black" points="642.27,-856.26 641.31,-845.71 635.48,-854.55 642.27,-856.26"/>
</g>
<!-- cumind_utils_logger&#45;&gt;cumind_core_network -->
<g id="edge47" class="edge">
<title>cumind_utils_logger&#45;&gt;cumind_core_network</title><style>.edge>path:hover{stroke-width:8}</style>
<path fill="none" stroke="black" d="M476.59,-1081.28C441.17,-1048.58 451.22,-988.24 462.96,-949.21"/>
<polygon fill="blue" stroke="black" points="466.42,-949.89 466.12,-939.29 459.75,-947.76 466.42,-949.89"/>
</g>
<!-- cumind_utils_logger&#45;&gt;cumind_data_memory -->
<g id="edge48" class="edge">
<title>cumind_utils_logger&#45;&gt;cumind_data_memory</title><style>.edge>path:hover{stroke-width:8}</style>
<path fill="none" stroke="black" d="M645.36,-1160.43C604.4,-1150.08 527.81,-1126.26 476.59,-1083.28"/>
<path fill="none" stroke="black" d="M476.59,-1081.28C378.74,-999.17 352.6,-945.8 360.59,-818.31"/>
<path fill="none" stroke="black" d="M360.59,-816.31C363.8,-775.56 375.59,-762.36 360.59,-724.33"/>
<path fill="none" stroke="black" d="M360.59,-722.33C338.36,-665.98 300.93,-606.36 276.49,-570.25"/>
<polygon fill="blue" stroke="black" points="279.11,-567.87 270.58,-561.59 273.33,-571.82 279.11,-567.87"/>
</g>
<!-- cumind_utils_logger&#45;&gt;cumind_data_self_play -->
<g id="edge49" class="edge">
<title>cumind_utils_logger&#45;&gt;cumind_data_self_play</title><style>.edge>path:hover{stroke-width:8}</style>
<path fill="none" stroke="black" d="M105.59,-816.31C85.91,-754.81 157.59,-595.48 183.59,-536.37"/>
</g>
<!-- cumind_utils_logger&#45;&gt;cumind_utils_checkpoint -->
<g id="edge50" class="edge">
<title>cumind_utils_logger&#45;&gt;cumind_utils_checkpoint</title><style>.edge>path:hover{stroke-width:8}</style>
<path fill="none" stroke="black" d="M645.4,-1166.94C548.57,-1166.84 232.59,-1160.51 178.59,-1083.28"/>
<path fill="none" stroke="black" d="M178.59,-1081.28C157.33,-1050.87 184.73,-1034.38 178.59,-997.79"/>
<path fill="none" stroke="black" d="M178.59,-995.79C173.15,-963.34 144.16,-969.79 129.59,-940.29 105.12,-890.75 121.67,-871.17 105.59,-818.31"/>
<path fill="none" stroke="black" d="M105.59,-816.31C89.65,-776.94 56.57,-788.68 34.59,-752.32 -0.78,-693.8 -8.3,-666.07 10.59,-600.36 24.24,-552.87 56.81,-505.85 80.89,-475.62"/>
<polygon fill="blue" stroke="black" points="83.85,-477.52 87.43,-467.55 78.41,-473.11 83.85,-477.52"/>
</g>
<!-- cumind_utils_logger&#45;&gt;cumind_utils_config -->
<g id="edge51" class="edge">
<title>cumind_utils_logger&#45;&gt;cumind_utils_config</title><style>.edge>path:hover{stroke-width:8}</style>
<path fill="none" stroke="black" d="M695.57,-1138.77C701.26,-1130.33 706.83,-1120.78 710.59,-1111.27 721.37,-1084.05 726.03,-1050.8 728.05,-1027.35"/>
<polygon fill="blue" stroke="black" points="692.59,-1136.92 689.68,-1147.11 698.31,-1140.96 692.59,-1136.92"/>
<polygon fill="blue" stroke="black" points="731.55,-1027.56 728.81,-1017.32 724.57,-1027.03 731.55,-1027.56"/>
</g>
<!-- cumind_utils_prng -->
<g id="node20" class="node">
<title>cumind_utils_prng</title><style>.edge>path:hover{stroke-width:8}</style>
<polygon fill="blue" stroke="black" points="701.59,-1102.78 645.59,-1102.78 645.59,-1061.78 701.59,-1061.78 701.59,-1102.78"/>
<text text-anchor="middle" x="673.59" y="-1090.78" font-family="Helvetica,sans-Serif" font-size="10.00" fill="white">cumind.</text>
<text text-anchor="middle" x="673.59" y="-1079.78" font-family="Helvetica,sans-Serif" font-size="10.00" fill="white">utils.</text>
<text text-anchor="middle" x="673.59" y="-1068.78" font-family="Helvetica,sans-Serif" font-size="10.00" fill="white">prng</text>
</g>
<!-- cumind_utils_logger&#45;&gt;cumind_utils_prng -->
<g id="edge52" class="edge">
<title>cumind_utils_logger&#45;&gt;cumind_utils_prng</title><style>.edge>path:hover{stroke-width:8}</style>
<path fill="none" stroke="black" d="M673.59,-1146.98C673.59,-1136.9 673.59,-1124.42 673.59,-1113.19"/>
<polygon fill="blue" stroke="black" points="677.09,-1112.92 673.59,-1102.92 670.09,-1112.92 677.09,-1112.92"/>
</g>
<!-- cumind_utils_prng&#45;&gt;cumind_agent_agent -->
<g id="edge53" class="edge">
<title>cumind_utils_prng&#45;&gt;cumind_agent_agent</title><style>.edge>path:hover{stroke-width:8}</style>
<path fill="none" stroke="black" d="M669.55,-1061.59C663.8,-1029.35 655.82,-963.73 673.59,-912.3"/>
</g>
<!-- cumind_utils_prng&#45;&gt;cumind_utils_config -->
<g id="edge54" class="edge">
<title>cumind_utils_prng&#45;&gt;cumind_utils_config</title><style>.edge>path:hover{stroke-width:8}</style>
<path fill="none" stroke="black" d="M686.86,-1061.49C693.98,-1050.89 702.86,-1037.64 710.69,-1025.97"/>
<polygon fill="blue" stroke="black" points="713.75,-1027.69 716.42,-1017.43 707.94,-1023.79 713.75,-1027.69"/>
</g>
<!-- cumind_utils_resolve -->
<g id="node21" class="node">
<title>cumind_utils_resolve</title><style>.edge>path:hover{stroke-width:8}</style>
<ellipse fill="#c24747" stroke="black" cx="797.59" cy="-1082.28" rx="39.7" ry="28.98"/>
<text text-anchor="middle" x="797.59" y="-1090.78" font-family="Helvetica,sans-Serif" font-size="10.00" fill="#ffffff">cumind.</text>
<text text-anchor="middle" x="797.59" y="-1079.78" font-family="Helvetica,sans-Serif" font-size="10.00" fill="#ffffff">utils.</text>
<text text-anchor="middle" x="797.59" y="-1068.78" font-family="Helvetica,sans-Serif" font-size="10.00" fill="#ffffff">resolve</text>
</g>
<!-- cumind_utils_resolve&#45;&gt;cumind_utils_config -->
<g id="edge55" class="edge">
<title>cumind_utils_resolve&#45;&gt;cumind_utils_config</title><style>.edge>path:hover{stroke-width:8}</style>
<path fill="none" stroke="black" d="M777.56,-1056.68C769.52,-1046.81 760.22,-1035.4 751.97,-1025.26"/>
<polygon fill="#c24747" stroke="black" points="754.64,-1023 745.61,-1017.46 749.21,-1027.42 754.64,-1023"/>
</g>
<!-- numpy -->
<g id="node22" class="node">
<title>numpy</title><style>.edge>path:hover{stroke-width:8}</style>
<ellipse fill="#26d9d9" stroke="black" cx="560.59" cy="-1082.28" rx="29.37" ry="18"/>
<text text-anchor="middle" x="560.59" y="-1079.78" font-family="Helvetica,sans-Serif" font-size="10.00" fill="#000000">numpy</text>
</g>
<!-- numpy&#45;&gt;cumind_agent_agent -->
<g id="edge56" class="edge">
<title>numpy&#45;&gt;cumind_agent_agent</title><style>.edge>path:hover{stroke-width:8}</style>
<path fill="none" stroke="black" d="M582.59,-995.79C572.6,-960.05 576.18,-948.85 582.59,-912.3"/>
<path fill="none" stroke="black" d="M582.59,-910.3C589.65,-870.03 564.59,-855.02 582.59,-818.31"/>
</g>
<!-- numpy&#45;&gt;cumind_core_mcts -->
<g id="edge57" class="edge">
<title>numpy&#45;&gt;cumind_core_mcts</title><style>.edge>path:hover{stroke-width:8}</style>
<path fill="none" stroke="black" d="M582.59,-910.3C586.84,-886.04 602.93,-863.7 618.39,-847.11"/>
<polygon fill="#26d9d9" stroke="black" points="620.94,-849.51 625.41,-839.91 615.92,-844.63 620.94,-849.51"/>
</g>
<!-- numpy&#45;&gt;cumind_data_memory -->
<g id="edge58" class="edge">
<title>numpy&#45;&gt;cumind_data_memory</title><style>.edge>path:hover{stroke-width:8}</style>
<path fill="none" stroke="black" d="M570.12,-1064.92C578.71,-1048.06 589.09,-1021.03 582.59,-997.79"/>
<path fill="none" stroke="black" d="M582.59,-995.79C562.89,-925.32 478.21,-993.13 427.59,-940.29 358.08,-867.72 401.55,-816.1 360.59,-724.33"/>
</g>
</g>
</svg>
